<?xml version="1.0" encoding="UTF-8" standalone="no"?>
<!DOCTYPE svg PUBLIC "-//W3C//DTD SVG 1.1//EN" "http://www.w3.org/Graphics/SVG/1.1/DTD/svg11.dtd">
<svg width="100%" height="100%" viewBox="0 0 512 118" version="1.1" xmlns="http://www.w3.org/2000/svg" xmlns:xlink="http://www.w3.org/1999/xlink" xml:space="preserve" xmlns:serif="http://www.serif.com/" style="fill-rule:evenodd;clip-rule:evenodd;stroke-linejoin:round;stroke-miterlimit:2;">
    <g transform="matrix(0.734724,0,0,0.734724,-372.622,-2859.69)">
        <g transform="matrix(200,0,0,200,508.146,4050.18)">
            <path d="M0.368,-0L0.368,-0.007C0.29,-0.007 0.281,-0.027 0.281,-0.134L0.281,-0.79L-0.005,-0.713L-0.003,-0.706C0.082,-0.726 0.096,-0.699 0.096,-0.632L0.096,-0.134C0.096,-0.027 0.087,-0.007 0.009,-0.007L0.009,-0L0.368,-0Z" style="fill:rgb(240,255,253);fill-rule:nonzero;"/>
        </g>
        <g transform="matrix(200,0,0,200,582.746,4050.18)">
            <path d="M0.315,-0.532C0.152,-0.532 0.025,-0.418 0.025,-0.262C0.025,-0.107 0.152,0.007 0.315,0.007C0.479,0.007 0.606,-0.107 0.606,-0.262C0.606,-0.418 0.479,-0.532 0.315,-0.532ZM0.315,-0.001C0.228,-0.001 0.228,-0.145 0.228,-0.262C0.228,-0.376 0.228,-0.524 0.315,-0.524C0.403,-0.524 0.403,-0.376 0.403,-0.262C0.403,-0.145 0.403,-0.001 0.315,-0.001Z" style="fill:rgb(240,255,253);fill-rule:nonzero;"/>
        </g>
        <g transform="matrix(200,0,0,200,708.946,4050.18)">
            <path d="M0.55,-0.32C0.582,-0.447 0.491,-0.532 0.326,-0.532C0.163,-0.532 0.025,-0.425 0.025,-0.265C0.025,-0.105 0.129,0.007 0.292,0.007C0.435,0.007 0.525,-0.086 0.572,-0.205L0.566,-0.208C0.531,-0.15 0.477,-0.112 0.398,-0.112C0.268,-0.112 0.213,-0.215 0.213,-0.32L0.55,-0.32ZM0.31,-0.524C0.39,-0.524 0.389,-0.392 0.373,-0.33L0.213,-0.33C0.214,-0.4 0.239,-0.524 0.31,-0.524Z" style="fill:rgb(240,255,253);fill-rule:nonzero;"/>
        </g>
        <g transform="matrix(200,0,0,200,826.346,4050.18)">
            <path d="M0.283,-0.532L-0.005,-0.455L-0.003,-0.448C0.082,-0.468 0.096,-0.441 0.096,-0.374L0.096,-0.134C0.096,-0.027 0.087,-0.007 0.009,-0.007L0.009,-0L0.388,-0L0.388,-0.007C0.286,-0.007 0.281,-0.027 0.281,-0.134L0.281,-0.375C0.3,-0.434 0.336,-0.507 0.391,-0.507C0.419,-0.507 0.433,-0.476 0.433,-0.447C0.433,-0.416 0.417,-0.382 0.383,-0.374C0.386,-0.317 0.427,-0.29 0.472,-0.29C0.537,-0.29 0.581,-0.349 0.581,-0.408C0.581,-0.49 0.508,-0.532 0.44,-0.532C0.345,-0.532 0.304,-0.463 0.28,-0.396L0.283,-0.532Z" style="fill:rgb(240,255,253);fill-rule:nonzero;"/>
        </g>
        <g transform="matrix(200,0,0,200,946.546,4050.18)">
            <path d="M0.005,-0.515L0.081,-0.515L0.081,-0.134C0.081,-0.056 0.12,0.007 0.189,0.007C0.275,0.007 0.344,-0.038 0.399,-0.085L0.395,-0.09C0.372,-0.073 0.349,-0.059 0.322,-0.059C0.267,-0.059 0.266,-0.129 0.266,-0.168L0.266,-0.515L0.376,-0.515L0.376,-0.525L0.266,-0.525L0.266,-0.724L0.256,-0.724C0.256,-0.665 0.239,-0.614 0.209,-0.577C0.167,-0.542 0.108,-0.525 0.026,-0.525L0.005,-0.525L0.005,-0.515Z" style="fill:rgb(240,255,253);fill-rule:nonzero;"/>
        </g>
        <g transform="matrix(200,0,0,200,1023.35,4050.18)">
            <path d="M0.368,-0L0.368,-0.007C0.29,-0.007 0.281,-0.027 0.281,-0.134L0.281,-0.532L-0.005,-0.455L-0.003,-0.448C0.082,-0.468 0.096,-0.441 0.096,-0.374L0.096,-0.134C0.096,-0.027 0.087,-0.007 0.009,-0.007L0.009,-0L0.368,-0ZM0.188,-0.79C0.129,-0.79 0.08,-0.742 0.08,-0.683C0.08,-0.623 0.129,-0.574 0.188,-0.574C0.248,-0.574 0.296,-0.623 0.296,-0.683C0.296,-0.743 0.248,-0.79 0.188,-0.79Z" style="fill:rgb(240,255,253);fill-rule:nonzero;"/>
        </g>
        <g transform="matrix(200,0,0,200,1097.95,4050.18)">
            <path d="M0.046,0.005L0.12,-0.014C0.175,-0.001 0.234,0.007 0.281,0.007C0.421,0.007 0.527,-0.066 0.527,-0.174C0.527,-0.371 0.178,-0.341 0.178,-0.455C0.178,-0.493 0.217,-0.524 0.275,-0.524C0.348,-0.524 0.459,-0.476 0.471,-0.355L0.478,-0.355L0.468,-0.531L0.402,-0.513C0.367,-0.524 0.323,-0.532 0.279,-0.532C0.175,-0.532 0.035,-0.488 0.035,-0.365C0.035,-0.168 0.391,-0.18 0.391,-0.071C0.391,-0.032 0.345,-0.001 0.281,-0.001C0.211,-0.001 0.065,-0.039 0.042,-0.208L0.035,-0.208L0.046,0.005Z" style="fill:rgb(240,255,253);fill-rule:nonzero;"/>
        </g>
    </g>
</svg>
