<?xml version="1.0" encoding="UTF-8" standalone="no"?>
<!DOCTYPE svg PUBLIC "-//W3C//DTD SVG 1.1//EN" "http://www.w3.org/Graphics/SVG/1.1/DTD/svg11.dtd">
<svg width="100%" height="100%" viewBox="0 0 318 320" version="1.1" xmlns="http://www.w3.org/2000/svg" xmlns:xlink="http://www.w3.org/1999/xlink" xml:space="preserve" xmlns:serif="http://www.serif.com/" style="fill-rule:evenodd;clip-rule:evenodd;stroke-linejoin:round;stroke-miterlimit:2;">
    <g transform="matrix(0.750037,0,0,0.754882,-726.051,-3195.32)">
        <path d="M1391.92,4232.88L968.02,4232.88L968.02,4656.78L1391.92,4656.78L1391.92,4232.88ZM1140.8,4289.16C1150.69,4287.3 1160.86,4286.33 1171.22,4286.33C1257.86,4286.33 1331.1,4353.74 1335.93,4435.96C1336.1,4438.83 1336.19,4441.71 1336.19,4444.61C1336.19,4530.7 1260.88,4603.33 1171.22,4603.33C1160.87,4603.33 1150.71,4602.35 1140.83,4600.49C1176.41,4593.81 1208.29,4575.73 1232,4550.31L1205.38,4526.69C1235.85,4512.66 1257.76,4480.73 1257.76,4444.61C1257.76,4408.7 1235.7,4376.75 1205.07,4362.82L1232,4338.91C1208.29,4313.82 1176.39,4295.82 1140.8,4289.16ZM1140.68,4528.26C1131.18,4532.13 1120.94,4534.27 1110.26,4534.27C1063.44,4534.27 1023.75,4493.23 1023.75,4444.61C1023.75,4396.43 1063.44,4355.39 1110.26,4355.39C1120.8,4355.39 1131.04,4357.54 1140.56,4361.44C1108.28,4374.56 1084.68,4407.46 1084.68,4444.61C1084.68,4482.14 1108.34,4515.16 1140.68,4528.26Z"/>
    </g>
</svg>
